<svg xmlns="http://www.w3.org/2000/svg" width="58" height="81" viewBox="0 0 58 81" fill="none">
  <path d="M29.1758 81C29.1758 81 0.839844 44.0418 0.839844 28.376C0.839844 24.6549 1.57278 20.9702 2.99679 17.5323C4.42081 14.0944 6.50802 10.9707 9.13927 8.33946C11.7705 5.70822 14.8942 3.62101 18.3321 2.19699C21.77 0.772971 25.4547 0.0400391 29.1758 0.0400391C32.897 0.0400391 36.5817 0.772971 40.0196 2.19699C43.4574 3.62101 46.5812 5.70822 49.2124 8.33946C51.8437 10.9707 53.9309 14.0944 55.3549 17.5323C56.7789 20.9702 57.5118 24.6549 57.5118 28.376C57.5118 44.0418 29.1758 81 29.1758 81ZM29.1758 36.472C31.323 36.472 33.3823 35.6191 34.9006 34.1008C36.4189 32.5825 37.2718 30.5232 37.2718 28.376C37.2718 26.2288 36.4189 24.1696 34.9006 22.6513C33.3823 21.133 31.323 20.28 29.1758 20.28C27.0287 20.28 24.9694 21.133 23.4511 22.6513C21.9328 24.1696 21.0798 26.2288 21.0798 28.376C21.0798 30.5232 21.9328 32.5825 23.4511 34.1008C24.9694 35.6191 27.0287 36.472 29.1758 36.472Z" fill="#0473DA"/>
</svg>