<svg width="53" height="53" viewBox="0 0 53 53" fill="none" xmlns="http://www.w3.org/2000/svg">
<path d="M41.8302 7.35742C42.9767 7.35742 44.0762 7.81285 44.8868 8.62353C45.6975 9.43421 46.1529 10.5337 46.1529 11.6802V41.9396C46.1529 43.086 45.6975 44.1855 44.8868 44.9962C44.0762 45.8069 42.9767 46.2623 41.8302 46.2623H11.5708C10.4243 46.2623 9.32483 45.8069 8.51416 44.9962C7.70348 44.1855 7.24805 43.086 7.24805 41.9396V11.6802C7.24805 10.5337 7.70348 9.43421 8.51416 8.62353C9.32483 7.81285 10.4243 7.35742 11.5708 7.35742H41.8302ZM40.7495 40.8589V29.4035C40.7495 27.5348 40.0071 25.7426 38.6857 24.4212C37.3643 23.0998 35.5721 22.3574 33.7034 22.3574C31.8662 22.3574 29.7264 23.4813 28.689 25.1672V22.7681H22.6587V40.8589H28.689V30.2032C28.689 28.539 30.029 27.1773 31.6933 27.1773C32.4958 27.1773 33.2655 27.4961 33.833 28.0636C34.4004 28.6311 34.7192 29.4007 34.7192 30.2032V40.8589H40.7495ZM15.6342 19.3747C16.5972 19.3747 17.5208 18.9922 18.2018 18.3112C18.8828 17.6302 19.2653 16.7066 19.2653 15.7436C19.2653 13.7335 17.6443 12.0909 15.6342 12.0909C14.6654 12.0909 13.7364 12.4757 13.0513 13.1607C12.3663 13.8457 11.9815 14.7748 11.9815 15.7436C11.9815 17.7537 13.6241 19.3747 15.6342 19.3747ZM18.6385 40.8589V22.7681H12.6515V40.8589H18.6385Z" fill="black"/>
</svg>
