<svg xmlns="http://www.w3.org/2000/svg" width="73" height="72" viewBox="0 0 73 72" fill="none">
  <path d="M15.2551 31.5684C20.9575 42.7752 30.1447 51.9228 41.3515 57.6648L50.0635 48.9528C51.1327 47.8836 52.7167 47.5272 54.1027 48.0024C58.5379 49.4676 63.3295 50.2596 68.2399 50.2596C70.4179 50.2596 72.1999 52.0416 72.1999 54.2196V68.04C72.1999 70.218 70.4179 72 68.2399 72C31.0555 72 0.919922 41.8644 0.919922 4.67997C0.919922 2.50197 2.70192 0.719971 4.87992 0.719971H18.7399C20.9179 0.719971 22.6999 2.50197 22.6999 4.67997C22.6999 9.62997 23.4919 14.382 24.9571 18.8172C25.3927 20.2032 25.0759 21.7476 23.9671 22.8564L15.2551 31.5684Z" fill="#0473DA"/>
</svg>