<svg width="36" height="37" viewBox="0 0 36 37" fill="none" xmlns="http://www.w3.org/2000/svg">
<g clip-path="url(#clip0_257_285)">
<path d="M32.2761 16.2817H11.6997C10.9201 16.2817 10.1725 16.5914 9.62121 17.1427C9.06995 17.694 8.76025 18.4416 8.76025 19.2212V32.4489C8.76025 33.2285 9.06995 33.9762 9.62121 34.5274C10.1725 35.0787 10.9201 35.3884 11.6997 35.3884H32.2761C33.0557 35.3884 33.8034 35.0787 34.3546 34.5274C34.9059 33.9762 35.2156 33.2285 35.2156 32.4489V19.2212C35.2156 18.4416 34.9059 17.694 34.3546 17.1427C33.8034 16.5914 33.0557 16.2817 32.2761 16.2817ZM18.0431 27.0344L20.3977 29.092C20.8459 29.4829 21.4133 29.677 21.9879 29.677C22.5626 29.677 23.1299 29.4815 23.5782 29.092L25.9327 27.0344L25.8783 27.0887L31.237 32.4474H12.7388L18.0975 27.0887L18.0431 27.0344ZM11.6997 31.4098V21.4846L16.9937 26.1158L11.6997 31.4098ZM26.9821 26.1158L32.2761 21.4846V31.4054L26.9821 26.1158ZM32.2761 19.2212V19.5299L22.6111 27.9868C22.4341 28.1279 22.2143 28.2048 21.9879 28.2048C21.7615 28.2048 21.5418 28.1279 21.3647 27.9868L11.6997 19.5299V19.2212H32.2761Z" fill="black"/>
</g>
<defs>
<clipPath id="clip0_257_285">
<rect width="35.2738" height="35.2738" fill="white" transform="translate(0.202148 0.806152)"/>
</clipPath>
</defs>
</svg>
