<svg width="41" height="41" viewBox="0 0 41 41" fill="none" xmlns="http://www.w3.org/2000/svg">
<path d="M1.48438 36.611V5.00823C1.48438 4.24627 1.78706 3.51552 2.32585 2.97673C2.86464 2.43794 3.59539 2.13525 4.35735 2.13525H35.9601C36.7221 2.13525 37.4528 2.43794 37.9916 2.97673C38.5304 3.51552 38.8331 4.24627 38.8331 5.00823V36.611C38.8331 37.3729 38.5304 38.1037 37.9916 38.6425C37.4528 39.1813 36.7221 39.484 35.9601 39.484H27.3412V25.866H29.381C29.8458 25.866 30.2915 25.6814 30.6202 25.3527C30.9489 25.0241 31.1335 24.5783 31.1335 24.1135V21.9013C31.1335 21.4365 30.9489 20.9908 30.6202 20.6621C30.2915 20.3335 29.8458 20.1488 29.381 20.1488H27.4561V17.4482C27.4561 15.0349 28.5478 15.0349 29.6396 15.0349H31.0473C31.2785 15.0444 31.509 15.0031 31.7225 14.9137C31.936 14.8243 32.1272 14.6892 32.2827 14.5178C32.4497 14.3588 32.5818 14.167 32.6708 13.9543C32.7598 13.7417 32.8038 13.5129 32.7998 13.2824V11.1564C32.8075 10.9225 32.769 10.6893 32.6865 10.4702C32.604 10.2512 32.4791 10.0505 32.319 9.87978C32.1589 9.70901 31.9667 9.57148 31.7535 9.47503C31.5402 9.37859 31.31 9.32512 31.076 9.3177H27.7721C26.8081 9.28145 25.8477 9.45491 24.9572 9.82609C24.0668 10.1973 23.2675 10.7573 22.6146 11.4676C21.9618 12.1778 21.4708 13.0213 21.1758 13.9398C20.8807 14.8583 20.7886 15.8299 20.9057 16.7874V20.1488H19.067C18.8344 20.145 18.6035 20.1875 18.3875 20.2739C18.1716 20.3602 17.975 20.4887 17.8092 20.6519C17.6434 20.815 17.5117 21.0095 17.4218 21.224C17.332 21.4385 17.2857 21.6688 17.2857 21.9013V24.1135C17.2857 24.3461 17.332 24.5764 17.4218 24.7909C17.5117 25.0054 17.6434 25.1999 17.8092 25.363C17.975 25.5261 18.1716 25.6546 18.3875 25.741C18.6035 25.8273 18.8344 25.8699 19.067 25.866H20.9057V39.484H4.35735C3.59539 39.484 2.86464 39.1813 2.32585 38.6425C1.78706 38.1037 1.48438 37.3729 1.48438 36.611Z" stroke="black" stroke-width="2.87298" stroke-linecap="round" stroke-linejoin="round"/>
</svg>
