<svg width="41" height="41" viewBox="0 0 41 41" fill="none" xmlns="http://www.w3.org/2000/svg">
<path d="M33.814 17.4348H25.9594C25.7455 17.4348 25.5337 17.4736 25.3364 17.5491C25.1391 17.6246 24.9603 17.7351 24.8105 17.8743C24.6607 18.0135 24.5429 18.1786 24.4639 18.3598C24.385 18.541 24.3464 18.7347 24.3506 18.9297V22.983C24.3506 23.3719 24.5201 23.7448 24.8218 24.0197C25.1235 24.2947 25.5327 24.4491 25.9594 24.4491H30.0286C30.0515 25.5603 29.8169 26.6633 29.3404 27.6863C28.8639 28.7092 28.156 29.6291 27.263 30.386C26.3701 31.1428 25.312 31.7195 24.1579 32.0786C23.0039 32.4376 21.7797 32.5708 20.5653 32.4696C13.4993 32.4696 10.0925 27.0076 10.0925 20.7982C10.0925 14.5888 13.7517 9.12683 20.5653 9.12683C23.5734 9.03587 26.5209 9.91091 28.893 11.5991C29.0826 11.7122 29.2972 11.7859 29.5215 11.815C29.7459 11.8441 29.9745 11.8279 30.1912 11.7676C30.4079 11.7073 30.6074 11.6042 30.7755 11.4658C30.9437 11.3274 31.0764 11.157 31.1643 10.9667L33.1516 6.82705C33.315 6.52194 33.3572 6.17458 33.2709 5.84428C33.1846 5.51399 32.9752 5.22122 32.6784 5.01597C29.0611 3.04476 24.9049 2.04802 20.6915 2.14124C9.20927 2.1125 1.38623 10.248 1.38623 20.7982C1.38623 31.3485 9.24081 39.484 20.5653 39.484C31.8898 39.484 38.7349 32.1247 38.7349 22.2356C38.7349 19.0734 37.347 17.4348 33.814 17.4348Z" stroke="black" stroke-width="2.76531" stroke-linecap="round" stroke-linejoin="round"/>
</svg>
