<svg width="19" height="26" viewBox="0 0 19 26" fill="none" xmlns="http://www.w3.org/2000/svg">
<path d="M9.6136 0.719727C14.5545 0.719727 18.5747 4.5646 18.5747 9.28879C18.5747 11.5386 17.5492 14.5305 15.5268 18.1816C13.9026 21.113 12.0236 23.7638 11.0463 25.0827C10.8811 25.3081 10.6652 25.4914 10.416 25.6177C10.1668 25.7441 9.89132 25.8099 9.61192 25.8099C9.33252 25.8099 9.05706 25.7441 8.80785 25.6177C8.55865 25.4914 8.34273 25.3081 8.17758 25.0827C7.20194 23.7638 5.32123 21.113 3.69703 18.1816C1.67798 14.5316 0.652491 11.5397 0.652491 9.28879C0.652491 4.5646 4.67267 0.719727 9.6136 0.719727ZM9.6136 13.2653C10.3225 13.2653 11.0155 13.0551 11.605 12.6612C12.1945 12.2673 12.6539 11.7075 12.9252 11.0525C13.1965 10.3976 13.2675 9.67686 13.1292 8.98154C12.9909 8.28623 12.6495 7.64754 12.1482 7.14625C11.6469 6.64496 11.0082 6.30357 10.3129 6.16527C9.61757 6.02696 8.89686 6.09794 8.24189 6.36924C7.58692 6.64054 7.02711 7.09997 6.63324 7.68943C6.23938 8.27888 6.02916 8.9719 6.02916 9.68083C6.03019 10.6312 6.40817 11.5423 7.08016 12.2143C7.75215 12.8863 8.66326 13.2642 9.6136 13.2653Z" fill="black"/>
</svg>
