<svg width="20" height="19" viewBox="0 0 20 19" fill="none" xmlns="http://www.w3.org/2000/svg">
<path d="M4.4065 8.07257C5.90045 11.0086 8.30736 13.4051 11.2434 14.9095L13.5258 12.627C13.8059 12.3469 14.2209 12.2535 14.584 12.378C15.746 12.7619 17.0013 12.9694 18.2878 12.9694C18.8584 12.9694 19.3252 13.4363 19.3252 14.0069V17.6276C19.3252 18.1982 18.8584 18.6651 18.2878 18.6651C8.54598 18.6651 0.650879 10.77 0.650879 1.02819C0.650879 0.457581 1.11774 -0.00927734 1.68834 -0.00927734H5.31947C5.89007 -0.00927734 6.35693 0.457581 6.35693 1.02819C6.35693 2.32502 6.56442 3.56997 6.94828 4.73193C7.06241 5.09505 6.97941 5.49966 6.68892 5.79015L4.4065 8.07257Z" fill="black"/>
</svg>
