<svg width="20" height="20" viewBox="0 0 20 20" fill="none" xmlns="http://www.w3.org/2000/svg">
<path d="M4.4065 8.72393C5.90045 11.66 8.30736 14.0565 11.2434 15.5608L13.5258 13.2784C13.8059 12.9983 14.2209 12.9049 14.584 13.0294C15.746 13.4133 17.0013 13.6208 18.2878 13.6208C18.8584 13.6208 19.3252 14.0876 19.3252 14.6582V18.279C19.3252 18.8496 18.8584 19.3164 18.2878 19.3164C8.54598 19.3164 0.650879 11.4213 0.650879 1.67955C0.650879 1.10895 1.11774 0.64209 1.68834 0.64209H5.31947C5.89007 0.64209 6.35693 1.10895 6.35693 1.67955C6.35693 2.97638 6.56442 4.22134 6.94828 5.3833C7.06241 5.74641 6.97941 6.15102 6.68892 6.44151L4.4065 8.72393Z" fill="black"/>
</svg>
