<svg width="47" height="42" viewBox="0 0 47 42" fill="none" xmlns="http://www.w3.org/2000/svg">
<path d="M13.6311 28.8075C11.3082 30.6776 8.64195 32.0497 5.79107 32.842C5.47706 32.9588 5.20575 33.1719 5.01402 33.4523C4.82229 33.7327 4.71944 34.0668 4.71944 34.4092C4.71944 34.7516 4.82229 35.0856 5.01402 35.366C5.20575 35.6464 5.47706 35.8595 5.79107 35.9763C28.3028 45.4458 42.6167 30.8081 40.4371 14.5699L44.0806 6.83429H39.8515C34.5814 0.198986 20.5929 0.532419 22.9026 14.67C22.9026 14.67 15.4204 16.037 5.85613 6.40083C5.63489 6.17695 5.35569 6.02275 5.05158 5.95649C4.74748 5.89023 4.43122 5.91468 4.14026 6.02695C3.8493 6.13923 3.59583 6.33461 3.40986 6.58998C3.22389 6.84534 3.11322 7.14998 3.09096 7.46781C2.07966 11.7286 2.58575 16.2194 4.51812 20.1317C6.45048 24.044 9.68213 27.1206 13.6311 28.8075Z" stroke="black" stroke-width="4.139" stroke-linecap="round" stroke-linejoin="round"/>
</svg>
